<svg width="483" height="175" viewBox="0 0 483 175" fill="none" xmlns="http://www.w3.org/2000/svg">
<path d="M22.2656 96.2063C22.2656 97.347 22.0469 98.4173 21.6094 99.4173C21.1875 100.417 20.6016 101.292 19.8516 102.042C19.1016 102.792 18.2266 103.386 17.2266 103.824C16.2266 104.245 15.1562 104.456 14.0156 104.456H11.625C10.4844 104.456 9.40625 104.245 8.39062 103.824C7.39062 103.386 6.51562 102.792 5.76562 102.042C5.01562 101.292 4.42188 100.417 3.98438 99.4173C3.5625 98.4173 3.35156 97.347 3.35156 96.2063V78.1595C3.35156 77.0188 3.5625 75.9485 3.98438 74.9485C4.42188 73.9485 5.01562 73.0735 5.76562 72.3235C6.51562 71.5735 7.39062 70.9876 8.39062 70.5657C9.40625 70.1282 10.4844 69.9095 11.625 69.9095H14.0156C15.1562 69.9095 16.2266 70.1282 17.2266 70.5657C18.2266 70.9876 19.1016 71.5735 19.8516 72.3235C20.6016 73.0735 21.1875 73.9485 21.6094 74.9485C22.0469 75.9485 22.2656 77.0188 22.2656 78.1595V79.5188L19.2422 79.9876V78.1595C19.2422 77.4095 19.1016 76.7141 18.8203 76.0735C18.5391 75.4173 18.1562 74.847 17.6719 74.3626C17.1875 73.8782 16.6172 73.4954 15.9609 73.2141C15.3203 72.9329 14.625 72.7923 13.875 72.7923H11.7656C11.0156 72.7923 10.3125 72.9329 9.65625 73.2141C9.01562 73.4954 8.44531 73.8782 7.94531 74.3626C7.46094 74.847 7.07812 75.4173 6.79688 76.0735C6.51562 76.7141 6.375 77.4095 6.375 78.1595V96.2063C6.375 96.9563 6.51562 97.6595 6.79688 98.3157C7.07812 98.9563 7.46094 99.5266 7.94531 100.027C8.44531 100.511 9.01562 100.894 9.65625 101.175C10.3125 101.456 11.0156 101.597 11.7656 101.597H13.875C14.625 101.597 15.3203 101.456 15.9609 101.175C16.6172 100.894 17.1875 100.511 17.6719 100.027C18.1562 99.5266 18.5391 98.9563 18.8203 98.3157C19.1016 97.6595 19.2422 96.9563 19.2422 96.2063V94.3782L22.2656 94.8704V96.2063ZM46.4859 97.4016C46.4859 98.3704 46.2984 99.2845 45.9234 100.144C45.5641 101.003 45.0641 101.753 44.4234 102.394C43.7828 103.034 43.0328 103.542 42.1734 103.917C41.3141 104.277 40.4 104.456 39.4312 104.456H37.5094C36.5406 104.456 35.6266 104.277 34.7672 103.917C33.9078 103.542 33.1578 103.034 32.5172 102.394C31.8766 101.753 31.3687 101.003 30.9937 100.144C30.6344 99.2845 30.4547 98.3704 30.4547 97.4016V86.5735C30.4547 85.6048 30.6344 84.6907 30.9937 83.8313C31.3687 82.972 31.8766 82.222 32.5172 81.5813C33.1578 80.9407 33.9078 80.4407 34.7672 80.0813C35.6266 79.7063 36.5406 79.5188 37.5094 79.5188H39.4312C40.4 79.5188 41.3141 79.7063 42.1734 80.0813C43.0328 80.4407 43.7828 80.9407 44.4234 81.5813C45.0641 82.222 45.5641 82.972 45.9234 83.8313C46.2984 84.6907 46.4859 85.6048 46.4859 86.5735V97.4016ZM43.6031 86.4095C43.6031 85.8313 43.4937 85.2923 43.275 84.7923C43.0562 84.2766 42.7594 83.8313 42.3844 83.4563C42.0094 83.0813 41.5641 82.7845 41.0484 82.5657C40.5484 82.347 40.0094 82.2376 39.4312 82.2376H37.5094C36.9312 82.2376 36.3844 82.347 35.8687 82.5657C35.3687 82.7845 34.9312 83.0813 34.5562 83.4563C34.1812 83.8313 33.8844 84.2766 33.6656 84.7923C33.4469 85.2923 33.3375 85.8313 33.3375 86.4095V97.5657C33.3375 98.1438 33.4469 98.6907 33.6656 99.2063C33.8844 99.7063 34.1812 100.144 34.5562 100.519C34.9312 100.894 35.3687 101.191 35.8687 101.409C36.3844 101.628 36.9312 101.738 37.5094 101.738H39.4312C40.0094 101.738 40.5484 101.628 41.0484 101.409C41.5641 101.191 42.0094 100.894 42.3844 100.519C42.7594 100.144 43.0562 99.7063 43.275 99.2063C43.4937 98.6907 43.6031 98.1438 43.6031 97.5657V86.4095ZM67.8 103.988V86.4095C67.8 85.8313 67.6906 85.2923 67.4719 84.7923C67.2531 84.2766 66.9562 83.8313 66.5812 83.4563C66.2062 83.0813 65.7609 82.7845 65.2453 82.5657C64.7453 82.347 64.2062 82.2376 63.6281 82.2376H61.7062C61.1281 82.2376 60.5812 82.347 60.0656 82.5657C59.5656 82.7845 59.1281 83.0813 58.7531 83.4563C58.3781 83.8313 58.0812 84.2766 57.8625 84.7923C57.6437 85.2923 57.5344 85.8313 57.5344 86.4095V103.988H54.6516V79.9876H55.6125L57.1828 82.4251C57.8391 81.5345 58.6594 80.8313 59.6437 80.3157C60.6437 79.7845 61.7297 79.5188 62.9016 79.5188H63.6281C64.5969 79.5188 65.5109 79.7063 66.3703 80.0813C67.2297 80.4407 67.9797 80.9407 68.6203 81.5813C69.2609 82.222 69.7609 82.972 70.1203 83.8313C70.4953 84.6907 70.6828 85.6048 70.6828 86.5735V103.988H67.8ZM94.8797 97.4016C94.8797 98.3704 94.6922 99.2845 94.3172 100.144C93.9578 101.003 93.4578 101.753 92.8172 102.394C92.1766 103.034 91.4266 103.542 90.5672 103.917C89.7078 104.277 88.7937 104.456 87.825 104.456H85.9031C84.9344 104.456 84.0203 104.277 83.1609 103.917C82.3016 103.542 81.5516 103.034 80.9109 102.394C80.2703 101.753 79.7625 101.003 79.3875 100.144C79.0281 99.2845 78.8484 98.3704 78.8484 97.4016V86.5735C78.8484 85.6048 79.0281 84.6907 79.3875 83.8313C79.7625 82.972 80.2703 82.222 80.9109 81.5813C81.5516 80.9407 82.3016 80.4407 83.1609 80.0813C84.0203 79.7063 84.9344 79.5188 85.9031 79.5188H87.825C88.7937 79.5188 89.7078 79.7063 90.5672 80.0813C91.4266 80.4407 92.1766 80.9407 92.8172 81.5813C93.4578 82.222 93.9578 82.972 94.3172 83.8313C94.6922 84.6907 94.8797 85.6048 94.8797 86.5735V92.222H81.7312V97.5657C81.7312 98.1438 81.8406 98.6907 82.0594 99.2063C82.2781 99.7063 82.575 100.144 82.95 100.519C83.325 100.894 83.7625 101.191 84.2625 101.409C84.7781 101.628 85.325 101.738 85.9031 101.738H87.825C88.4031 101.738 88.9422 101.628 89.4422 101.409C89.9578 101.191 90.4031 100.894 90.7781 100.519C91.1531 100.144 91.45 99.7063 91.6687 99.2063C91.8875 98.6907 91.9969 98.1438 91.9969 97.5657V95.972L94.8797 96.4407V97.4016ZM91.9969 86.4095C91.9969 85.8313 91.8875 85.2923 91.6687 84.7923C91.45 84.2766 91.1531 83.8313 90.7781 83.4563C90.4031 83.0813 89.9578 82.7845 89.4422 82.5657C88.9422 82.347 88.4031 82.2376 87.825 82.2376H85.9031C85.325 82.2376 84.7781 82.347 84.2625 82.5657C83.7625 82.7845 83.325 83.0813 82.95 83.4563C82.575 83.8313 82.2781 84.2766 82.0594 84.7923C81.8406 85.2923 81.7312 85.8313 81.7312 86.4095V89.972H91.9969V86.4095ZM119.077 97.4016C119.077 98.3704 118.889 99.2845 118.514 100.144C118.155 101.003 117.655 101.753 117.014 102.394C116.373 103.034 115.623 103.542 114.764 103.917C113.905 104.277 112.991 104.456 112.022 104.456H110.1C109.131 104.456 108.217 104.277 107.358 103.917C106.498 103.542 105.748 103.034 105.108 102.394C104.467 101.753 103.959 101.003 103.584 100.144C103.225 99.2845 103.045 98.3704 103.045 97.4016V86.5735C103.045 85.6048 103.225 84.6907 103.584 83.8313C103.959 82.972 104.467 82.222 105.108 81.5813C105.748 80.9407 106.498 80.4407 107.358 80.0813C108.217 79.7063 109.131 79.5188 110.1 79.5188H112.022C112.991 79.5188 113.905 79.7063 114.764 80.0813C115.623 80.4407 116.373 80.9407 117.014 81.5813C117.655 82.222 118.155 82.972 118.514 83.8313C118.889 84.6907 119.077 85.6048 119.077 86.5735V87.5345L116.194 88.0032V86.4095C116.194 85.8313 116.084 85.2923 115.866 84.7923C115.647 84.2766 115.35 83.8313 114.975 83.4563C114.6 83.0813 114.155 82.7845 113.639 82.5657C113.139 82.347 112.6 82.2376 112.022 82.2376H110.1C109.522 82.2376 108.975 82.347 108.459 82.5657C107.959 82.7845 107.522 83.0813 107.147 83.4563C106.772 83.8313 106.475 84.2766 106.256 84.7923C106.037 85.2923 105.928 85.8313 105.928 86.4095V97.5657C105.928 98.1438 106.037 98.6907 106.256 99.2063C106.475 99.7063 106.772 100.144 107.147 100.519C107.522 100.894 107.959 101.191 108.459 101.409C108.975 101.628 109.522 101.738 110.1 101.738H112.022C112.6 101.738 113.139 101.628 113.639 101.409C114.155 101.191 114.6 100.894 114.975 100.519C115.35 100.144 115.647 99.7063 115.866 99.2063C116.084 98.6907 116.194 98.1438 116.194 97.5657V95.972L119.077 96.4407V97.4016ZM135.984 103.988C135.109 103.988 134.281 103.824 133.5 103.495C132.734 103.167 132.062 102.714 131.484 102.136C130.922 101.558 130.469 100.886 130.125 100.12C129.797 99.3548 129.633 98.5345 129.633 97.6595V82.7298H125.32V79.9876H129.633V74.222L132.516 73.7532V79.9876H138.609V82.7298H132.516V97.8001C132.516 98.2845 132.602 98.7376 132.773 99.1595C132.961 99.5657 133.211 99.9251 133.523 100.238C133.836 100.55 134.203 100.8 134.625 100.988C135.047 101.159 135.5 101.245 135.984 101.245H138.609V103.988H135.984ZM161.4 103.988L159.806 101.597C159.15 102.456 158.33 103.152 157.345 103.683C156.361 104.199 155.283 104.456 154.111 104.456H153.384C152.416 104.456 151.502 104.277 150.642 103.917C149.783 103.542 149.033 103.034 148.392 102.394C147.752 101.753 147.244 101.003 146.869 100.144C146.509 99.2845 146.33 98.3704 146.33 97.4016V97.1673C146.33 96.1985 146.509 95.2845 146.869 94.4251C147.244 93.5657 147.752 92.8157 148.392 92.1751C149.033 91.5345 149.783 91.0345 150.642 90.6751C151.502 90.3001 152.416 90.1126 153.384 90.1126H159.478V86.4095C159.478 85.8313 159.369 85.2923 159.15 84.7923C158.931 84.2766 158.634 83.8313 158.259 83.4563C157.884 83.0813 157.439 82.7845 156.923 82.5657C156.423 82.347 155.884 82.2376 155.306 82.2376H153.619C153.041 82.2376 152.494 82.347 151.978 82.5657C151.478 82.7845 151.041 83.0813 150.666 83.4563C150.291 83.8313 149.994 84.2766 149.775 84.7923C149.556 85.2923 149.447 85.8313 149.447 86.4095V87.2766L146.564 86.8079V86.5735C146.564 85.6048 146.744 84.6907 147.103 83.8313C147.478 82.972 147.986 82.222 148.627 81.5813C149.267 80.9407 150.017 80.4407 150.877 80.0813C151.736 79.7063 152.65 79.5188 153.619 79.5188H155.306C156.275 79.5188 157.189 79.7063 158.048 80.0813C158.908 80.4407 159.658 80.9407 160.298 81.5813C160.939 82.222 161.439 82.972 161.798 83.8313C162.173 84.6907 162.361 85.6048 162.361 86.5735V103.988H161.4ZM159.478 92.3626H153.384C152.806 92.3626 152.259 92.472 151.744 92.6907C151.244 92.9095 150.806 93.2141 150.431 93.6048C150.056 93.9798 149.759 94.4251 149.541 94.9407C149.322 95.4407 149.212 95.9798 149.212 96.5579V97.5657C149.212 98.1438 149.322 98.6907 149.541 99.2063C149.759 99.7063 150.056 100.144 150.431 100.519C150.806 100.894 151.244 101.191 151.744 101.409C152.259 101.628 152.806 101.738 153.384 101.738H155.306C155.884 101.738 156.423 101.628 156.923 101.409C157.439 101.191 157.884 100.894 158.259 100.519C158.634 100.144 158.931 99.7063 159.15 99.2063C159.369 98.6907 159.478 98.1438 159.478 97.5657V92.3626Z" fill="#00B4D8"/>
<rect width="11.1829" height="89.2664" transform="matrix(0.0028268 0.999996 -0.999998 0.00200003 356.307 89.7276)" fill="#00B4D8"/>
<rect width="12" height="85.0857" transform="matrix(-0.999998 0.00200003 -0.0028268 -0.999996 279.242 174.951)" fill="#00B4D8"/>
<rect width="12" height="85.0857" transform="matrix(-0.999998 0.00200003 -0.0028268 -0.999996 259.242 174.951)" fill="#00B4D8"/>
<rect width="11.6474" height="88.9996" transform="matrix(-0.00672905 -0.999977 0.999989 -0.00476103 170.078 101.896)" fill="#00B4D8"/>
<rect width="10.9582" height="89" transform="matrix(-0.000547118 -1 1 -0.0003871 170.032 85.0851)" fill="#00B4D8"/>
<rect width="12" height="85.0857" transform="matrix(1 -0.0003871 0.000547118 1 247.001 0.00466919)" fill="#00B4D8"/>
<rect width="12" height="85.0857" transform="matrix(1 -0.0003871 0.000547118 1 267.001 0.00465393)" fill="#00B4D8"/>
<rect width="11.4722" height="89.27" transform="matrix(0.00444943 0.99999 -0.999995 0.0031481 356.288 73.5435)" fill="#00B4D8"/>
<path d="M382.604 96.2063C382.604 97.347 382.37 98.4173 381.901 99.4173C381.448 100.417 380.831 101.292 380.05 102.042C379.284 102.792 378.385 103.386 377.354 103.824C376.339 104.245 375.26 104.456 374.12 104.456H371.706C370.565 104.456 369.479 104.245 368.448 103.824C367.432 103.386 366.534 102.792 365.753 102.042C364.987 101.292 364.37 100.417 363.901 99.4173C363.448 98.4173 363.221 97.347 363.221 96.2063V94.8704L366.245 94.3782V96.2063C366.245 96.9563 366.393 97.6595 366.69 98.3157C367.003 98.9563 367.417 99.5266 367.932 100.027C368.448 100.511 369.042 100.894 369.714 101.175C370.401 101.456 371.12 101.597 371.87 101.597H373.979C374.729 101.597 375.44 101.456 376.112 101.175C376.784 100.894 377.378 100.511 377.893 100.027C378.409 99.5266 378.815 98.9563 379.112 98.3157C379.425 97.6595 379.581 96.9563 379.581 96.2063V95.1985C379.581 94.0423 379.354 93.0813 378.901 92.3157C378.448 91.5501 377.846 90.9016 377.096 90.3704C376.346 89.8235 375.495 89.3626 374.542 88.9876C373.604 88.6126 372.635 88.2376 371.635 87.8626C370.635 87.4876 369.659 87.0735 368.706 86.6204C367.768 86.1673 366.925 85.6048 366.175 84.9329C365.425 84.2454 364.823 83.4095 364.37 82.4251C363.917 81.4407 363.69 80.2298 363.69 78.7923V78.1595C363.69 77.0188 363.901 75.9485 364.323 74.9485C364.76 73.9485 365.354 73.0735 366.104 72.3235C366.854 71.5735 367.729 70.9876 368.729 70.5657C369.745 70.1282 370.823 69.9095 371.964 69.9095H374.12C375.26 69.9095 376.331 70.1282 377.331 70.5657C378.331 70.9876 379.206 71.5735 379.956 72.3235C380.706 73.0735 381.292 73.9485 381.714 74.9485C382.151 75.9485 382.37 77.0188 382.37 78.1595V79.0266L379.346 79.5188V78.1595C379.346 77.4095 379.206 76.7141 378.925 76.0735C378.643 75.4173 378.26 74.847 377.776 74.3626C377.292 73.8782 376.721 73.4954 376.065 73.2141C375.425 72.9329 374.729 72.7923 373.979 72.7923H372.104C371.354 72.7923 370.651 72.9329 369.995 73.2141C369.354 73.4954 368.784 73.8782 368.284 74.3626C367.8 74.847 367.417 75.4173 367.135 76.0735C366.854 76.7141 366.714 77.4095 366.714 78.1595V78.7923C366.714 79.8704 366.94 80.7766 367.393 81.511C367.846 82.2454 368.448 82.8782 369.198 83.4095C369.948 83.9251 370.792 84.3782 371.729 84.7688C372.682 85.1438 373.659 85.5345 374.659 85.9407C375.659 86.3313 376.628 86.7688 377.565 87.2532C378.518 87.722 379.37 88.3079 380.12 89.011C380.87 89.6985 381.471 90.5423 381.925 91.5423C382.378 92.5423 382.604 93.761 382.604 95.1985V96.2063ZM405.629 103.988L404.035 101.597C403.379 102.456 402.559 103.152 401.575 103.683C400.59 104.199 399.512 104.456 398.34 104.456H397.614C396.645 104.456 395.731 104.277 394.871 103.917C394.012 103.542 393.262 103.034 392.621 102.394C391.981 101.753 391.473 101.003 391.098 100.144C390.739 99.2845 390.559 98.3704 390.559 97.4016V97.1673C390.559 96.1985 390.739 95.2845 391.098 94.4251C391.473 93.5657 391.981 92.8157 392.621 92.1751C393.262 91.5345 394.012 91.0345 394.871 90.6751C395.731 90.3001 396.645 90.1126 397.614 90.1126H403.707V86.4095C403.707 85.8313 403.598 85.2923 403.379 84.7923C403.16 84.2766 402.864 83.8313 402.489 83.4563C402.114 83.0813 401.668 82.7845 401.153 82.5657C400.653 82.347 400.114 82.2376 399.535 82.2376H397.848C397.27 82.2376 396.723 82.347 396.207 82.5657C395.707 82.7845 395.27 83.0813 394.895 83.4563C394.52 83.8313 394.223 84.2766 394.004 84.7923C393.785 85.2923 393.676 85.8313 393.676 86.4095V87.2766L390.793 86.8079V86.5735C390.793 85.6048 390.973 84.6907 391.332 83.8313C391.707 82.972 392.215 82.222 392.856 81.5813C393.496 80.9407 394.246 80.4407 395.106 80.0813C395.965 79.7063 396.879 79.5188 397.848 79.5188H399.535C400.504 79.5188 401.418 79.7063 402.278 80.0813C403.137 80.4407 403.887 80.9407 404.528 81.5813C405.168 82.222 405.668 82.972 406.028 83.8313C406.403 84.6907 406.59 85.6048 406.59 86.5735V103.988H405.629ZM403.707 92.3626H397.614C397.035 92.3626 396.489 92.472 395.973 92.6907C395.473 92.9095 395.035 93.2141 394.66 93.6048C394.285 93.9798 393.989 94.4251 393.77 94.9407C393.551 95.4407 393.442 95.9798 393.442 96.5579V97.5657C393.442 98.1438 393.551 98.6907 393.77 99.2063C393.989 99.7063 394.285 100.144 394.66 100.519C395.035 100.894 395.473 101.191 395.973 101.409C396.489 101.628 397.035 101.738 397.614 101.738H399.535C400.114 101.738 400.653 101.628 401.153 101.409C401.668 101.191 402.114 100.894 402.489 100.519C402.864 100.144 403.16 99.7063 403.379 99.2063C403.598 98.6907 403.707 98.1438 403.707 97.5657V92.3626ZM429.826 103.988L428.232 101.55C427.576 102.441 426.756 103.152 425.771 103.683C424.787 104.199 423.709 104.456 422.537 104.456H421.81C420.842 104.456 419.928 104.277 419.068 103.917C418.209 103.542 417.459 103.034 416.818 102.394C416.178 101.753 415.67 101.003 415.295 100.144C414.935 99.2845 414.756 98.3704 414.756 97.4016V79.9876H417.639V97.5657C417.639 98.1438 417.748 98.6907 417.967 99.2063C418.185 99.7063 418.482 100.144 418.857 100.519C419.232 100.894 419.67 101.191 420.17 101.409C420.685 101.628 421.232 101.738 421.81 101.738H423.732C424.31 101.738 424.85 101.628 425.35 101.409C425.865 101.191 426.31 100.894 426.685 100.519C427.06 100.144 427.357 99.7063 427.576 99.2063C427.795 98.6907 427.904 98.1438 427.904 97.5657V79.9876H430.787V103.988H429.826ZM422.537 76.1438H420.357L424.201 70.3782H429.006L422.537 76.1438ZM454.023 103.988L452.429 101.55C451.773 102.441 450.953 103.152 449.968 103.683C448.984 104.199 447.906 104.456 446.734 104.456H446.007C445.039 104.456 444.125 104.277 443.265 103.917C442.406 103.542 441.656 103.034 441.015 102.394C440.375 101.753 439.867 101.003 439.492 100.144C439.132 99.2845 438.953 98.3704 438.953 97.4016V86.5735C438.953 85.6048 439.132 84.6907 439.492 83.8313C439.867 82.972 440.375 82.222 441.015 81.5813C441.656 80.9407 442.406 80.4407 443.265 80.0813C444.125 79.7063 445.039 79.5188 446.007 79.5188H446.734C447.812 79.5188 448.812 79.7376 449.734 80.1751C450.656 80.6126 451.445 81.222 452.101 82.0032V70.3782H454.984V103.988H454.023ZM452.101 86.4095C452.101 85.8313 451.992 85.2923 451.773 84.7923C451.554 84.2766 451.257 83.8313 450.882 83.4563C450.507 83.0813 450.062 82.7845 449.546 82.5657C449.046 82.347 448.507 82.2376 447.929 82.2376H446.007C445.429 82.2376 444.882 82.347 444.367 82.5657C443.867 82.7845 443.429 83.0813 443.054 83.4563C442.679 83.8313 442.382 84.2766 442.164 84.7923C441.945 85.2923 441.835 85.8313 441.835 86.4095V97.5657C441.835 98.1438 441.945 98.6907 442.164 99.2063C442.382 99.7063 442.679 100.144 443.054 100.519C443.429 100.894 443.867 101.191 444.367 101.409C444.882 101.628 445.429 101.738 446.007 101.738H447.929C448.507 101.738 449.046 101.628 449.546 101.409C450.062 101.191 450.507 100.894 450.882 100.519C451.257 100.144 451.554 99.7063 451.773 99.2063C451.992 98.6907 452.101 98.1438 452.101 97.5657V86.4095ZM479.181 97.4016C479.181 98.3704 478.993 99.2845 478.618 100.144C478.259 101.003 477.759 101.753 477.118 102.394C476.478 103.034 475.728 103.542 474.868 103.917C474.009 104.277 473.095 104.456 472.126 104.456H470.204C469.235 104.456 468.321 104.277 467.462 103.917C466.603 103.542 465.853 103.034 465.212 102.394C464.571 101.753 464.064 101.003 463.689 100.144C463.329 99.2845 463.15 98.3704 463.15 97.4016V86.5735C463.15 85.6048 463.329 84.6907 463.689 83.8313C464.064 82.972 464.571 82.222 465.212 81.5813C465.853 80.9407 466.603 80.4407 467.462 80.0813C468.321 79.7063 469.235 79.5188 470.204 79.5188H472.126C473.095 79.5188 474.009 79.7063 474.868 80.0813C475.728 80.4407 476.478 80.9407 477.118 81.5813C477.759 82.222 478.259 82.972 478.618 83.8313C478.993 84.6907 479.181 85.6048 479.181 86.5735V92.222H466.032V97.5657C466.032 98.1438 466.142 98.6907 466.36 99.2063C466.579 99.7063 466.876 100.144 467.251 100.519C467.626 100.894 468.064 101.191 468.564 101.409C469.079 101.628 469.626 101.738 470.204 101.738H472.126C472.704 101.738 473.243 101.628 473.743 101.409C474.259 101.191 474.704 100.894 475.079 100.519C475.454 100.144 475.751 99.7063 475.97 99.2063C476.189 98.6907 476.298 98.1438 476.298 97.5657V95.972L479.181 96.4407V97.4016ZM476.298 86.4095C476.298 85.8313 476.189 85.2923 475.97 84.7923C475.751 84.2766 475.454 83.8313 475.079 83.4563C474.704 83.0813 474.259 82.7845 473.743 82.5657C473.243 82.347 472.704 82.2376 472.126 82.2376H470.204C469.626 82.2376 469.079 82.347 468.564 82.5657C468.064 82.7845 467.626 83.0813 467.251 83.4563C466.876 83.8313 466.579 84.2766 466.36 84.7923C466.142 85.2923 466.032 85.8313 466.032 86.4095V89.972H476.298V86.4095Z" fill="#00B4D8"/>
</svg>
