<svg width="376" height="175" viewBox="0 0 376 175" fill="none" xmlns="http://www.w3.org/2000/svg">
<path d="M13.916 92.6243C13.916 93.3372 13.7793 94.0061 13.5059 94.6311C13.2422 95.2561 12.876 95.803 12.4072 96.2718C11.9385 96.7405 11.3916 97.1116 10.7666 97.3851C10.1416 97.6487 9.47266 97.7806 8.75977 97.7806H7.26562C6.55273 97.7806 5.87891 97.6487 5.24414 97.3851C4.61914 97.1116 4.07227 96.7405 3.60352 96.2718C3.13477 95.803 2.76367 95.2561 2.49023 94.6311C2.22656 94.0061 2.09473 93.3372 2.09473 92.6243V81.345C2.09473 80.6321 2.22656 79.9632 2.49023 79.3382C2.76367 78.7132 3.13477 78.1663 3.60352 77.6976C4.07227 77.2288 4.61914 76.8626 5.24414 76.5989C5.87891 76.3255 6.55273 76.1888 7.26562 76.1888H8.75977C9.47266 76.1888 10.1416 76.3255 10.7666 76.5989C11.3916 76.8626 11.9385 77.2288 12.4072 77.6976C12.876 78.1663 13.2422 78.7132 13.5059 79.3382C13.7793 79.9632 13.916 80.6321 13.916 81.345V82.1946L12.0264 82.4876V81.345C12.0264 80.8763 11.9385 80.4417 11.7627 80.0413C11.5869 79.6311 11.3477 79.2747 11.0449 78.972C10.7422 78.6692 10.3857 78.43 9.97559 78.2542C9.5752 78.0784 9.14062 77.9905 8.67188 77.9905H7.35352C6.88477 77.9905 6.44531 78.0784 6.03516 78.2542C5.63477 78.43 5.27832 78.6692 4.96582 78.972C4.66309 79.2747 4.42383 79.6311 4.24805 80.0413C4.07227 80.4417 3.98438 80.8763 3.98438 81.345V92.6243C3.98438 93.0931 4.07227 93.5325 4.24805 93.9427C4.42383 94.3431 4.66309 94.6995 4.96582 95.012C5.27832 95.3147 5.63477 95.554 6.03516 95.7298C6.44531 95.9056 6.88477 95.9935 7.35352 95.9935H8.67188C9.14062 95.9935 9.5752 95.9056 9.97559 95.7298C10.3857 95.554 10.7422 95.3147 11.0449 95.012C11.3477 94.6995 11.5869 94.3431 11.7627 93.9427C11.9385 93.5325 12.0264 93.0931 12.0264 92.6243V91.4817L13.916 91.7894V92.6243ZM29.0537 93.3714C29.0537 93.9769 28.9365 94.5481 28.7021 95.0853C28.4775 95.6224 28.165 96.0911 27.7646 96.4915C27.3643 96.8919 26.8955 97.2093 26.3584 97.4436C25.8213 97.6683 25.25 97.7806 24.6445 97.7806H23.4434C22.8379 97.7806 22.2666 97.6683 21.7295 97.4436C21.1924 97.2093 20.7236 96.8919 20.3232 96.4915C19.9229 96.0911 19.6055 95.6224 19.3711 95.0853C19.1465 94.5481 19.0342 93.9769 19.0342 93.3714V86.6038C19.0342 85.9983 19.1465 85.427 19.3711 84.8899C19.6055 84.3528 19.9229 83.8841 20.3232 83.4837C20.7236 83.0833 21.1924 82.7708 21.7295 82.5462C22.2666 82.3118 22.8379 82.1946 23.4434 82.1946H24.6445C25.25 82.1946 25.8213 82.3118 26.3584 82.5462C26.8955 82.7708 27.3643 83.0833 27.7646 83.4837C28.165 83.8841 28.4775 84.3528 28.7021 84.8899C28.9365 85.427 29.0537 85.9983 29.0537 86.6038V93.3714ZM27.252 86.5013C27.252 86.1399 27.1836 85.803 27.0469 85.4905C26.9102 85.1683 26.7246 84.8899 26.4902 84.6556C26.2559 84.4212 25.9775 84.2356 25.6553 84.0989C25.3428 83.9622 25.0059 83.8938 24.6445 83.8938H23.4434C23.082 83.8938 22.7402 83.9622 22.418 84.0989C22.1055 84.2356 21.832 84.4212 21.5977 84.6556C21.3633 84.8899 21.1777 85.1683 21.041 85.4905C20.9043 85.803 20.8359 86.1399 20.8359 86.5013V93.4739C20.8359 93.8353 20.9043 94.177 21.041 94.4993C21.1777 94.8118 21.3633 95.0853 21.5977 95.3196C21.832 95.554 22.1055 95.7395 22.418 95.8763C22.7402 96.013 23.082 96.0813 23.4434 96.0813H24.6445C25.0059 96.0813 25.3428 96.013 25.6553 95.8763C25.9775 95.7395 26.2559 95.554 26.4902 95.3196C26.7246 95.0853 26.9102 94.8118 27.0469 94.4993C27.1836 94.177 27.252 93.8353 27.252 93.4739V86.5013ZM42.375 97.4876V86.5013C42.375 86.1399 42.3066 85.803 42.1699 85.4905C42.0332 85.1683 41.8477 84.8899 41.6133 84.6556C41.3789 84.4212 41.1006 84.2356 40.7783 84.0989C40.4658 83.9622 40.1289 83.8938 39.7676 83.8938H38.5664C38.2051 83.8938 37.8633 83.9622 37.541 84.0989C37.2285 84.2356 36.9551 84.4212 36.7207 84.6556C36.4863 84.8899 36.3008 85.1683 36.1641 85.4905C36.0273 85.803 35.959 86.1399 35.959 86.5013V97.4876H34.1572V82.4876H34.7578L35.7393 84.011C36.1494 83.4544 36.6621 83.0149 37.2773 82.6927C37.9023 82.3606 38.5811 82.1946 39.3135 82.1946H39.7676C40.373 82.1946 40.9443 82.3118 41.4814 82.5462C42.0186 82.7708 42.4873 83.0833 42.8877 83.4837C43.2881 83.8841 43.6006 84.3528 43.8252 84.8899C44.0596 85.427 44.1768 85.9983 44.1768 86.6038V97.4876H42.375ZM59.2998 93.3714C59.2998 93.9769 59.1826 94.5481 58.9482 95.0853C58.7236 95.6224 58.4111 96.0911 58.0107 96.4915C57.6104 96.8919 57.1416 97.2093 56.6045 97.4436C56.0674 97.6683 55.4961 97.7806 54.8906 97.7806H53.6895C53.084 97.7806 52.5127 97.6683 51.9756 97.4436C51.4385 97.2093 50.9697 96.8919 50.5693 96.4915C50.1689 96.0911 49.8516 95.6224 49.6172 95.0853C49.3926 94.5481 49.2803 93.9769 49.2803 93.3714V86.6038C49.2803 85.9983 49.3926 85.427 49.6172 84.8899C49.8516 84.3528 50.1689 83.8841 50.5693 83.4837C50.9697 83.0833 51.4385 82.7708 51.9756 82.5462C52.5127 82.3118 53.084 82.1946 53.6895 82.1946H54.8906C55.4961 82.1946 56.0674 82.3118 56.6045 82.5462C57.1416 82.7708 57.6104 83.0833 58.0107 83.4837C58.4111 83.8841 58.7236 84.3528 58.9482 84.8899C59.1826 85.427 59.2998 85.9983 59.2998 86.6038V90.1341H51.082V93.4739C51.082 93.8353 51.1504 94.177 51.2871 94.4993C51.4238 94.8118 51.6094 95.0853 51.8438 95.3196C52.0781 95.554 52.3516 95.7395 52.6641 95.8763C52.9863 96.013 53.3281 96.0813 53.6895 96.0813H54.8906C55.252 96.0813 55.5889 96.013 55.9014 95.8763C56.2236 95.7395 56.502 95.554 56.7363 95.3196C56.9707 95.0853 57.1562 94.8118 57.293 94.4993C57.4297 94.177 57.498 93.8353 57.498 93.4739V92.4778L59.2998 92.7708V93.3714ZM57.498 86.5013C57.498 86.1399 57.4297 85.803 57.293 85.4905C57.1562 85.1683 56.9707 84.8899 56.7363 84.6556C56.502 84.4212 56.2236 84.2356 55.9014 84.0989C55.5889 83.9622 55.252 83.8938 54.8906 83.8938H53.6895C53.3281 83.8938 52.9863 83.9622 52.6641 84.0989C52.3516 84.2356 52.0781 84.4212 51.8438 84.6556C51.6094 84.8899 51.4238 85.1683 51.2871 85.4905C51.1504 85.803 51.082 86.1399 51.082 86.5013V88.7278H57.498V86.5013ZM74.4229 93.3714C74.4229 93.9769 74.3057 94.5481 74.0713 95.0853C73.8467 95.6224 73.5342 96.0911 73.1338 96.4915C72.7334 96.8919 72.2646 97.2093 71.7275 97.4436C71.1904 97.6683 70.6191 97.7806 70.0137 97.7806H68.8125C68.207 97.7806 67.6357 97.6683 67.0986 97.4436C66.5615 97.2093 66.0928 96.8919 65.6924 96.4915C65.292 96.0911 64.9746 95.6224 64.7402 95.0853C64.5156 94.5481 64.4033 93.9769 64.4033 93.3714V86.6038C64.4033 85.9983 64.5156 85.427 64.7402 84.8899C64.9746 84.3528 65.292 83.8841 65.6924 83.4837C66.0928 83.0833 66.5615 82.7708 67.0986 82.5462C67.6357 82.3118 68.207 82.1946 68.8125 82.1946H70.0137C70.6191 82.1946 71.1904 82.3118 71.7275 82.5462C72.2646 82.7708 72.7334 83.0833 73.1338 83.4837C73.5342 83.8841 73.8467 84.3528 74.0713 84.8899C74.3057 85.427 74.4229 85.9983 74.4229 86.6038V87.2044L72.6211 87.4974V86.5013C72.6211 86.1399 72.5527 85.803 72.416 85.4905C72.2793 85.1683 72.0938 84.8899 71.8594 84.6556C71.625 84.4212 71.3467 84.2356 71.0244 84.0989C70.7119 83.9622 70.375 83.8938 70.0137 83.8938H68.8125C68.4512 83.8938 68.1094 83.9622 67.7871 84.0989C67.4746 84.2356 67.2012 84.4212 66.9668 84.6556C66.7324 84.8899 66.5469 85.1683 66.4102 85.4905C66.2734 85.803 66.2051 86.1399 66.2051 86.5013V93.4739C66.2051 93.8353 66.2734 94.177 66.4102 94.4993C66.5469 94.8118 66.7324 95.0853 66.9668 95.3196C67.2012 95.554 67.4746 95.7395 67.7871 95.8763C68.1094 96.013 68.4512 96.0813 68.8125 96.0813H70.0137C70.375 96.0813 70.7119 96.013 71.0244 95.8763C71.3467 95.7395 71.625 95.554 71.8594 95.3196C72.0938 95.0853 72.2793 94.8118 72.416 94.4993C72.5527 94.177 72.6211 93.8353 72.6211 93.4739V92.4778L74.4229 92.7708V93.3714ZM84.9902 97.4876C84.4434 97.4876 83.9258 97.3851 83.4375 97.18C82.959 96.9749 82.5391 96.6917 82.1777 96.3304C81.8262 95.969 81.543 95.5491 81.3281 95.0706C81.123 94.5921 81.0205 94.0794 81.0205 93.5325V84.2015H78.3252V82.4876H81.0205V78.8841L82.8223 78.5911V82.4876H86.6309V84.2015H82.8223V93.6204C82.8223 93.9231 82.876 94.2063 82.9834 94.47C83.1006 94.7239 83.2568 94.9485 83.4521 95.1438C83.6475 95.3392 83.877 95.4954 84.1406 95.6126C84.4043 95.72 84.6875 95.7737 84.9902 95.7737H86.6309V97.4876H84.9902ZM100.875 97.4876L99.8789 95.9935C99.4688 96.5306 98.9561 96.9651 98.3408 97.2972C97.7256 97.6194 97.0518 97.7806 96.3193 97.7806H95.8652C95.2598 97.7806 94.6885 97.6683 94.1514 97.4436C93.6143 97.2093 93.1455 96.8919 92.7451 96.4915C92.3447 96.0911 92.0273 95.6224 91.793 95.0853C91.5684 94.5481 91.4561 93.9769 91.4561 93.3714V93.2249C91.4561 92.6194 91.5684 92.0481 91.793 91.511C92.0273 90.9739 92.3447 90.5052 92.7451 90.1048C93.1455 89.7044 93.6143 89.3919 94.1514 89.1673C94.6885 88.9329 95.2598 88.8157 95.8652 88.8157H99.6738V86.5013C99.6738 86.1399 99.6055 85.803 99.4688 85.4905C99.332 85.1683 99.1465 84.8899 98.9121 84.6556C98.6777 84.4212 98.3994 84.2356 98.0771 84.0989C97.7646 83.9622 97.4277 83.8938 97.0664 83.8938H96.0117C95.6504 83.8938 95.3086 83.9622 94.9863 84.0989C94.6738 84.2356 94.4004 84.4212 94.166 84.6556C93.9316 84.8899 93.7461 85.1683 93.6094 85.4905C93.4727 85.803 93.4043 86.1399 93.4043 86.5013V87.0433L91.6025 86.7503V86.6038C91.6025 85.9983 91.7148 85.427 91.9395 84.8899C92.1738 84.3528 92.4912 83.8841 92.8916 83.4837C93.292 83.0833 93.7607 82.7708 94.2979 82.5462C94.835 82.3118 95.4062 82.1946 96.0117 82.1946H97.0664C97.6719 82.1946 98.2432 82.3118 98.7803 82.5462C99.3174 82.7708 99.7861 83.0833 100.187 83.4837C100.587 83.8841 100.899 84.3528 101.124 84.8899C101.358 85.427 101.476 85.9983 101.476 86.6038V97.4876H100.875ZM99.6738 90.222H95.8652C95.5039 90.222 95.1621 90.2903 94.8398 90.427C94.5273 90.5638 94.2539 90.7542 94.0195 90.9983C93.7852 91.2327 93.5996 91.511 93.4629 91.8333C93.3262 92.1458 93.2578 92.4827 93.2578 92.844V93.4739C93.2578 93.8353 93.3262 94.177 93.4629 94.4993C93.5996 94.8118 93.7852 95.0853 94.0195 95.3196C94.2539 95.554 94.5273 95.7395 94.8398 95.8763C95.1621 96.013 95.5039 96.0813 95.8652 96.0813H97.0664C97.4277 96.0813 97.7646 96.013 98.0771 95.8763C98.3994 95.7395 98.6777 95.554 98.9121 95.3196C99.1465 95.0853 99.332 94.8118 99.4688 94.4993C99.6055 94.177 99.6738 93.8353 99.6738 93.4739V90.222Z" fill="#00B4D8"/>
<rect width="11.1829" height="89.2664" transform="matrix(0.0028268 0.999996 -0.999998 0.00200003 294.307 89.7276)" fill="#00B4D8"/>
<rect width="12" height="85.0857" transform="matrix(-0.999998 0.00200003 -0.0028268 -0.999996 217.242 174.951)" fill="#00B4D8"/>
<rect width="12" height="85.0857" transform="matrix(-0.999998 0.00200003 -0.0028268 -0.999996 197.242 174.951)" fill="#00B4D8"/>
<rect width="11.6474" height="88.9996" transform="matrix(-0.00672905 -0.999977 0.999989 -0.00476103 108.078 101.896)" fill="#00B4D8"/>
<rect width="10.9582" height="89" transform="matrix(-0.000547118 -1 1 -0.0003871 108.032 85.0851)" fill="#00B4D8"/>
<rect width="12" height="85.0857" transform="matrix(1 -0.0003871 0.000547118 1 185.001 0.00466919)" fill="#00B4D8"/>
<rect width="12" height="85.0857" transform="matrix(1 -0.0003871 0.000547118 1 205.001 0.00465393)" fill="#00B4D8"/>
<rect width="11.4722" height="89.27" transform="matrix(0.00444943 0.99999 -0.999995 0.0031481 294.288 73.5435)" fill="#00B4D8"/>
<path d="M312.255 92.6243C312.255 93.3372 312.108 94.0061 311.815 94.6311C311.532 95.2561 311.146 95.803 310.658 96.2718C310.179 96.7405 309.618 97.1116 308.973 97.385C308.339 97.6487 307.665 97.7805 306.952 97.7805H305.443C304.73 97.7805 304.052 97.6487 303.407 97.385C302.772 97.1116 302.211 96.7405 301.722 96.2718C301.244 95.803 300.858 95.2561 300.565 94.6311C300.282 94.0061 300.14 93.3372 300.14 92.6243V91.7893L302.03 91.4817V92.6243C302.03 93.093 302.123 93.5325 302.308 93.9427C302.504 94.343 302.762 94.6995 303.085 95.012C303.407 95.3147 303.778 95.554 304.198 95.7298C304.628 95.9055 305.077 95.9934 305.546 95.9934H306.864C307.333 95.9934 307.777 95.9055 308.197 95.7298C308.617 95.554 308.988 95.3147 309.31 95.012C309.633 94.6995 309.886 94.343 310.072 93.9427C310.267 93.5325 310.365 93.093 310.365 92.6243V91.9944C310.365 91.2718 310.223 90.6712 309.94 90.1927C309.657 89.7141 309.281 89.3089 308.812 88.9768C308.344 88.635 307.811 88.347 307.216 88.1126C306.63 87.8782 306.024 87.6438 305.399 87.4095C304.774 87.1751 304.164 86.9163 303.568 86.6331C302.982 86.3499 302.455 85.9983 301.986 85.5784C301.517 85.1487 301.141 84.6263 300.858 84.011C300.575 83.3958 300.433 82.6389 300.433 81.7405V81.345C300.433 80.6321 300.565 79.9632 300.829 79.3382C301.102 78.7132 301.473 78.1663 301.942 77.6975C302.411 77.2288 302.958 76.8626 303.583 76.5989C304.218 76.3255 304.891 76.1888 305.604 76.1888H306.952C307.665 76.1888 308.334 76.3255 308.959 76.5989C309.584 76.8626 310.131 77.2288 310.599 77.6975C311.068 78.1663 311.434 78.7132 311.698 79.3382C311.971 79.9632 312.108 80.6321 312.108 81.345V81.887L310.219 82.1946V81.345C310.219 80.8763 310.131 80.4417 309.955 80.0413C309.779 79.6311 309.54 79.2747 309.237 78.972C308.934 78.6692 308.578 78.43 308.168 78.2542C307.767 78.0784 307.333 77.9905 306.864 77.9905H305.692C305.223 77.9905 304.784 78.0784 304.374 78.2542C303.973 78.43 303.617 78.6692 303.304 78.972C303.002 79.2747 302.762 79.6311 302.587 80.0413C302.411 80.4417 302.323 80.8763 302.323 81.345V81.7405C302.323 82.4143 302.465 82.9807 302.748 83.4397C303.031 83.8987 303.407 84.2942 303.876 84.6263C304.344 84.9485 304.872 85.2317 305.458 85.4759C306.053 85.7102 306.664 85.9544 307.289 86.2083C307.914 86.4524 308.519 86.7259 309.105 87.0286C309.701 87.3216 310.233 87.6878 310.702 88.1272C311.171 88.5569 311.547 89.0843 311.83 89.7093C312.113 90.3343 312.255 91.096 312.255 91.9944V92.6243ZM326.645 97.4876L325.649 95.9934C325.239 96.5305 324.726 96.9651 324.111 97.2971C323.496 97.6194 322.822 97.7805 322.09 97.7805H321.635C321.03 97.7805 320.459 97.6682 319.922 97.4436C319.385 97.2093 318.916 96.8919 318.515 96.4915C318.115 96.0911 317.798 95.6223 317.563 95.0852C317.339 94.5481 317.226 93.9768 317.226 93.3714V93.2249C317.226 92.6194 317.339 92.0481 317.563 91.511C317.798 90.9739 318.115 90.5052 318.515 90.1048C318.916 89.7044 319.385 89.3919 319.922 89.1673C320.459 88.9329 321.03 88.8157 321.635 88.8157H325.444V86.5013C325.444 86.1399 325.376 85.803 325.239 85.4905C325.102 85.1682 324.917 84.8899 324.682 84.6555C324.448 84.4212 324.17 84.2356 323.847 84.0989C323.535 83.9622 323.198 83.8938 322.837 83.8938H321.782C321.421 83.8938 321.079 83.9622 320.757 84.0989C320.444 84.2356 320.171 84.4212 319.936 84.6555C319.702 84.8899 319.516 85.1682 319.38 85.4905C319.243 85.803 319.175 86.1399 319.175 86.5013V87.0432L317.373 86.7503V86.6038C317.373 85.9983 317.485 85.427 317.71 84.8899C317.944 84.3528 318.261 83.8841 318.662 83.4837C319.062 83.0833 319.531 82.7708 320.068 82.5462C320.605 82.3118 321.177 82.1946 321.782 82.1946H322.837C323.442 82.1946 324.013 82.3118 324.551 82.5462C325.088 82.7708 325.556 83.0833 325.957 83.4837C326.357 83.8841 326.67 84.3528 326.894 84.8899C327.129 85.427 327.246 85.9983 327.246 86.6038V97.4876H326.645ZM325.444 90.222H321.635C321.274 90.222 320.932 90.2903 320.61 90.427C320.298 90.5638 320.024 90.7542 319.79 90.9983C319.555 91.2327 319.37 91.511 319.233 91.8333C319.096 92.1458 319.028 92.4827 319.028 92.844V93.4739C319.028 93.8352 319.096 94.177 319.233 94.4993C319.37 94.8118 319.555 95.0852 319.79 95.3196C320.024 95.554 320.298 95.7395 320.61 95.8763C320.932 96.013 321.274 96.0813 321.635 96.0813H322.837C323.198 96.0813 323.535 96.013 323.847 95.8763C324.17 95.7395 324.448 95.554 324.682 95.3196C324.917 95.0852 325.102 94.8118 325.239 94.4993C325.376 94.177 325.444 93.8352 325.444 93.4739V90.222ZM341.768 97.4876L340.772 95.9641C340.362 96.5208 339.849 96.9651 339.234 97.2971C338.619 97.6194 337.945 97.7805 337.213 97.7805H336.759C336.153 97.7805 335.582 97.6682 335.045 97.4436C334.508 97.2093 334.039 96.8919 333.638 96.4915C333.238 96.0911 332.921 95.6223 332.686 95.0852C332.462 94.5481 332.349 93.9768 332.349 93.3714V82.4876H334.151V93.4739C334.151 93.8352 334.219 94.177 334.356 94.4993C334.493 94.8118 334.678 95.0852 334.913 95.3196C335.147 95.554 335.421 95.7395 335.733 95.8763C336.055 96.013 336.397 96.0813 336.759 96.0813H337.96C338.321 96.0813 338.658 96.013 338.97 95.8763C339.293 95.7395 339.571 95.554 339.805 95.3196C340.04 95.0852 340.225 94.8118 340.362 94.4993C340.499 94.177 340.567 93.8352 340.567 93.4739V82.4876H342.369V97.4876H341.768ZM337.213 80.0852H335.85L338.253 76.4817H341.256L337.213 80.0852ZM356.891 97.4876L355.895 95.9641C355.485 96.5208 354.972 96.9651 354.357 97.2971C353.742 97.6194 353.068 97.7805 352.336 97.7805H351.882C351.276 97.7805 350.705 97.6682 350.168 97.4436C349.631 97.2093 349.162 96.8919 348.761 96.4915C348.361 96.0911 348.044 95.6223 347.809 95.0852C347.585 94.5481 347.472 93.9768 347.472 93.3714V86.6038C347.472 85.9983 347.585 85.427 347.809 84.8899C348.044 84.3528 348.361 83.8841 348.761 83.4837C349.162 83.0833 349.631 82.7708 350.168 82.5462C350.705 82.3118 351.276 82.1946 351.882 82.1946H352.336C353.01 82.1946 353.635 82.3313 354.211 82.6048C354.787 82.8782 355.28 83.2591 355.69 83.7473V76.4817H357.492V97.4876H356.891ZM355.69 86.5013C355.69 86.1399 355.622 85.803 355.485 85.4905C355.348 85.1682 355.163 84.8899 354.928 84.6555C354.694 84.4212 354.416 84.2356 354.094 84.0989C353.781 83.9622 353.444 83.8938 353.083 83.8938H351.882C351.52 83.8938 351.178 83.9622 350.856 84.0989C350.544 84.2356 350.27 84.4212 350.036 84.6555C349.802 84.8899 349.616 85.1682 349.479 85.4905C349.343 85.803 349.274 86.1399 349.274 86.5013V93.4739C349.274 93.8352 349.343 94.177 349.479 94.4993C349.616 94.8118 349.802 95.0852 350.036 95.3196C350.27 95.554 350.544 95.7395 350.856 95.8763C351.178 96.013 351.52 96.0813 351.882 96.0813H353.083C353.444 96.0813 353.781 96.013 354.094 95.8763C354.416 95.7395 354.694 95.554 354.928 95.3196C355.163 95.0852 355.348 94.8118 355.485 94.4993C355.622 94.177 355.69 93.8352 355.69 93.4739V86.5013ZM372.615 93.3714C372.615 93.9768 372.498 94.5481 372.263 95.0852C372.039 95.6223 371.726 96.0911 371.326 96.4915C370.926 96.8919 370.457 97.2093 369.92 97.4436C369.383 97.6682 368.811 97.7805 368.206 97.7805H367.005C366.399 97.7805 365.828 97.6682 365.291 97.4436C364.754 97.2093 364.285 96.8919 363.885 96.4915C363.484 96.0911 363.167 95.6223 362.932 95.0852C362.708 94.5481 362.595 93.9768 362.595 93.3714V86.6038C362.595 85.9983 362.708 85.427 362.932 84.8899C363.167 84.3528 363.484 83.8841 363.885 83.4837C364.285 83.0833 364.754 82.7708 365.291 82.5462C365.828 82.3118 366.399 82.1946 367.005 82.1946H368.206C368.811 82.1946 369.383 82.3118 369.92 82.5462C370.457 82.7708 370.926 83.0833 371.326 83.4837C371.726 83.8841 372.039 84.3528 372.263 84.8899C372.498 85.427 372.615 85.9983 372.615 86.6038V90.1341H364.397V93.4739C364.397 93.8352 364.466 94.177 364.602 94.4993C364.739 94.8118 364.925 95.0852 365.159 95.3196C365.393 95.554 365.667 95.7395 365.979 95.8763C366.302 96.013 366.643 96.0813 367.005 96.0813H368.206C368.567 96.0813 368.904 96.013 369.217 95.8763C369.539 95.7395 369.817 95.554 370.052 95.3196C370.286 95.0852 370.471 94.8118 370.608 94.4993C370.745 94.177 370.813 93.8352 370.813 93.4739V92.4778L372.615 92.7708V93.3714ZM370.813 86.5013C370.813 86.1399 370.745 85.803 370.608 85.4905C370.471 85.1682 370.286 84.8899 370.052 84.6555C369.817 84.4212 369.539 84.2356 369.217 84.0989C368.904 83.9622 368.567 83.8938 368.206 83.8938H367.005C366.643 83.8938 366.302 83.9622 365.979 84.0989C365.667 84.2356 365.393 84.4212 365.159 84.6555C364.925 84.8899 364.739 85.1682 364.602 85.4905C364.466 85.803 364.397 86.1399 364.397 86.5013V88.7278H370.813V86.5013Z" fill="#00B4D8"/>
</svg>
